<svg data-v-423bf9ae="" xmlns="http://www.w3.org/2000/svg" viewBox="0 0 535.8112036194988 60" class="font"><!----><!----><!----><g data-v-423bf9ae="" id="16bec22b-612c-4e4d-9396-cc2ef9117961" fill="white" transform="matrix(5.899704970490485,0,0,5.899704970490485,-4.306792201827932,-28.023597656155488)"><path d="M6.78 12.61L6.78 12.61L6.78 12.61Q6.59 12.77 6.31 12.86L6.31 12.86L6.31 12.86Q6.02 12.95 5.64 12.95L5.64 12.95L5.64 12.95Q5.14 12.95 4.81 12.82L4.81 12.82L4.81 12.82Q4.48 12.70 4.38 12.39L4.38 12.39L4.38 12.39Q3.99 11.16 3.74 10.40L3.74 10.40L3.74 10.40Q3.49 9.63 3.35 9.06L3.35 9.06L3.28 9.06L3.28 9.06Q3.23 9.88 3.21 10.56L3.21 10.56L3.21 10.56Q3.19 11.24 3.19 11.89L3.19 11.89L3.19 11.89Q3.18 12.53 3.16 13.19L3.16 13.19L3.16 13.19Q3.14 13.85 3.09 14.64L3.09 14.64L3.09 14.64Q2.91 14.71 2.62 14.76L2.62 14.76L2.62 14.76Q2.32 14.81 2.03 14.81L2.03 14.81L2.03 14.81Q1.41 14.81 1.07 14.62L1.07 14.62L1.07 14.62Q0.73 14.42 0.73 13.90L0.73 13.90L1.13 6.76L1.13 6.76Q1.25 6.58 1.62 6.37L1.62 6.37L1.62 6.37Q2.00 6.16 2.69 6.16L2.69 6.16L2.69 6.16Q3.43 6.16 3.85 6.39L3.85 6.39L3.85 6.39Q4.27 6.62 4.47 7.14L4.47 7.14L4.47 7.14Q4.59 7.48 4.74 7.91L4.74 7.91L4.74 7.91Q4.89 8.34 5.03 8.81L5.03 8.81L5.03 8.81Q5.18 9.27 5.32 9.72L5.32 9.72L5.32 9.72Q5.46 10.18 5.57 10.54L5.57 10.54L5.64 10.54L5.64 10.54Q5.98 9.37 6.31 8.27L6.31 8.27L6.31 8.27Q6.65 7.17 6.93 6.43L6.93 6.43L6.93 6.43Q7.14 6.31 7.47 6.24L7.47 6.24L7.47 6.24Q7.80 6.16 8.20 6.16L8.20 6.16L8.20 6.16Q8.89 6.16 9.32 6.36L9.32 6.36L9.32 6.36Q9.76 6.57 9.83 6.94L9.83 6.94L9.83 6.94Q9.88 7.22 9.95 7.81L9.95 7.81L9.95 7.81Q10.01 8.39 10.08 9.11L10.08 9.11L10.08 9.11Q10.15 9.84 10.22 10.65L10.22 10.65L10.22 10.65Q10.29 11.47 10.35 12.22L10.35 12.22L10.35 12.22Q10.42 12.96 10.46 13.59L10.46 13.59L10.46 13.59Q10.50 14.21 10.51 14.55L10.51 14.55L10.51 14.55Q10.28 14.69 10.02 14.75L10.02 14.75L10.02 14.75Q9.76 14.81 9.35 14.81L9.35 14.81L9.35 14.81Q8.82 14.81 8.46 14.63L8.46 14.63L8.46 14.63Q8.09 14.45 8.06 13.92L8.06 13.92L8.06 13.92Q7.98 12.39 7.96 11.17L7.96 11.17L7.96 11.17Q7.94 9.95 7.90 9.13L7.90 9.13L7.83 9.13L7.83 9.13Q7.69 9.67 7.42 10.50L7.42 10.50L7.42 10.50Q7.15 11.33 6.78 12.61ZM14.80 13.19L14.80 13.19L14.80 13.19Q15.04 13.19 15.32 13.14L15.32 13.14L15.32 13.14Q15.61 13.09 15.75 13.01L15.75 13.01L15.75 11.89L14.74 11.97L14.74 11.97Q14.35 12.00 14.10 12.14L14.10 12.14L14.10 12.14Q13.85 12.28 13.85 12.56L13.85 12.56L13.85 12.56Q13.85 12.84 14.06 13.01L14.06 13.01L14.06 13.01Q14.28 13.19 14.80 13.19ZM14.69 7.69L14.69 7.69L14.69 7.69Q15.44 7.69 16.06 7.84L16.06 7.84L16.06 7.84Q16.69 7.99 17.13 8.31L17.13 8.31L17.13 8.31Q17.57 8.62 17.81 9.11L17.81 9.11L17.81 9.11Q18.05 9.59 18.05 10.25L18.05 10.25L18.05 13.38L18.05 13.38Q18.05 13.75 17.84 13.98L17.84 13.98L17.84 13.98Q17.64 14.21 17.36 14.38L17.36 14.38L17.36 14.38Q16.45 14.92 14.80 14.92L14.80 14.92L14.80 14.92Q14.06 14.92 13.46 14.78L13.46 14.78L13.46 14.78Q12.87 14.64 12.44 14.36L12.44 14.36L12.44 14.36Q12.01 14.08 11.78 13.65L11.78 13.65L11.78 13.65Q11.55 13.22 11.55 12.64L11.55 12.64L11.55 12.64Q11.55 11.68 12.12 11.16L12.12 11.16L12.12 11.16Q12.70 10.64 13.90 10.51L13.90 10.51L15.74 10.32L15.74 10.22L15.74 10.22Q15.74 9.81 15.38 9.64L15.38 9.64L15.38 9.64Q15.02 9.46 14.35 9.46L14.35 9.46L14.35 9.46Q13.82 9.46 13.31 9.58L13.31 9.58L13.31 9.58Q12.81 9.69 12.40 9.86L12.40 9.86L12.40 9.86Q12.22 9.73 12.10 9.47L12.10 9.47L12.10 9.47Q11.97 9.21 11.97 8.93L11.97 8.93L11.97 8.93Q11.97 8.57 12.14 8.35L12.14 8.35L12.14 8.35Q12.32 8.13 12.68 7.98L12.68 7.98L12.68 7.98Q13.09 7.83 13.64 7.76L13.64 7.76L13.64 7.76Q14.20 7.69 14.69 7.69ZM23.34 9.56L23.34 9.56L23.34 9.56Q22.99 9.56 22.67 9.67L22.67 9.67L22.67 9.67Q22.36 9.79 22.13 10.00L22.13 10.00L22.13 10.00Q21.90 10.22 21.76 10.54L21.76 10.54L21.76 10.54Q21.62 10.86 21.62 11.30L21.62 11.30L21.62 11.30Q21.62 12.17 22.11 12.60L22.11 12.60L22.11 12.60Q22.61 13.03 23.32 13.03L23.32 13.03L23.32 13.03Q23.74 13.03 24.05 12.94L24.05 12.94L24.05 12.94Q24.36 12.84 24.60 12.73L24.60 12.73L24.60 12.73Q24.88 12.92 25.02 13.15L25.02 13.15L25.02 13.15Q25.16 13.38 25.16 13.71L25.16 13.71L25.16 13.71Q25.16 14.28 24.61 14.60L24.61 14.60L24.61 14.60Q24.07 14.91 23.10 14.91L23.10 14.91L23.10 14.91Q22.22 14.91 21.50 14.65L21.50 14.65L21.50 14.65Q20.79 14.39 20.28 13.92L20.28 13.92L20.28 13.92Q19.77 13.45 19.49 12.80L19.49 12.80L19.49 12.80Q19.21 12.14 19.21 11.34L19.21 11.34L19.21 11.34Q19.21 10.42 19.51 9.72L19.51 9.72L19.51 9.72Q19.81 9.03 20.33 8.58L20.33 8.58L20.33 8.58Q20.85 8.13 21.53 7.91L21.53 7.91L21.53 7.91Q22.20 7.69 22.96 7.69L22.96 7.69L22.96 7.69Q23.97 7.69 24.51 8.05L24.51 8.05L24.51 8.05Q25.06 8.41 25.06 8.99L25.06 8.99L25.06 8.99Q25.06 9.25 24.93 9.49L24.93 9.49L24.93 9.49Q24.81 9.72 24.64 9.88L24.64 9.88L24.64 9.88Q24.40 9.77 24.07 9.67L24.07 9.67L24.07 9.67Q23.73 9.56 23.34 9.56ZM30.76 11.23L33.00 13.47L33.00 13.47Q32.93 14.13 32.61 14.48L32.61 14.48L32.61 14.48Q32.30 14.83 31.70 14.83L31.70 14.83L31.70 14.83Q31.25 14.83 30.90 14.61L30.90 14.61L30.90 14.61Q30.55 14.39 30.14 13.87L30.14 13.87L28.76 12.14L28.76 14.69L28.76 14.69Q28.60 14.71 28.30 14.76L28.30 14.76L28.30 14.76Q28 14.81 27.69 14.81L27.69 14.81L27.69 14.81Q27.38 14.81 27.14 14.77L27.14 14.77L27.14 14.77Q26.89 14.73 26.73 14.60L26.73 14.60L26.73 14.60Q26.56 14.48 26.47 14.26L26.47 14.26L26.47 14.26Q26.38 14.04 26.38 13.69L26.38 13.69L26.38 5.59L26.38 5.59Q26.53 5.54 26.83 5.50L26.83 5.50L26.83 5.50Q27.13 5.45 27.44 5.45L27.44 5.45L27.44 5.45Q27.75 5.45 27.99 5.49L27.99 5.49L27.99 5.49Q28.24 5.53 28.41 5.66L28.41 5.66L28.41 5.66Q28.57 5.78 28.66 6.00L28.66 6.00L28.66 6.00Q28.76 6.22 28.76 6.57L28.76 6.57L28.76 10.26L31.16 7.80L31.16 7.80Q31.89 7.80 32.33 8.12L32.33 8.12L32.33 8.12Q32.77 8.44 32.77 8.93L32.77 8.93L32.77 8.93Q32.77 9.14 32.70 9.32L32.70 9.32L32.70 9.32Q32.63 9.49 32.49 9.67L32.49 9.67L32.49 9.67Q32.34 9.86 32.11 10.06L32.11 10.06L32.11 10.06Q31.88 10.26 31.57 10.53L31.57 10.53L30.76 11.23ZM37.41 14.92L37.41 14.92L37.41 14.92Q36.58 14.92 35.88 14.69L35.88 14.69L35.88 14.69Q35.17 14.46 34.64 14.00L34.64 14.00L34.64 14.00Q34.12 13.54 33.82 12.84L33.82 12.84L33.82 12.84Q33.52 12.14 33.52 11.20L33.52 11.20L33.52 11.20Q33.52 10.28 33.82 9.61L33.82 9.61L33.82 9.61Q34.12 8.95 34.61 8.52L34.61 8.52L34.61 8.52Q35.10 8.09 35.73 7.89L35.73 7.89L35.73 7.89Q36.36 7.69 37.02 7.69L37.02 7.69L37.02 7.69Q37.76 7.69 38.37 7.91L38.37 7.91L38.37 7.91Q38.98 8.13 39.42 8.53L39.42 8.53L39.42 8.53Q39.86 8.92 40.10 9.46L40.10 9.46L40.10 9.46Q40.35 10.01 40.35 10.65L40.35 10.65L40.35 10.65Q40.35 11.13 40.08 11.38L40.08 11.38L40.08 11.38Q39.82 11.63 39.34 11.70L39.34 11.70L35.88 12.22L35.88 12.22Q36.04 12.68 36.51 12.92L36.51 12.92L36.51 12.92Q36.99 13.15 37.60 13.15L37.60 13.15L37.60 13.15Q38.18 13.15 38.69 13.00L38.69 13.00L38.69 13.00Q39.20 12.85 39.52 12.66L39.52 12.66L39.52 12.66Q39.75 12.80 39.90 13.05L39.90 13.05L39.90 13.05Q40.05 13.30 40.05 13.58L40.05 13.58L40.05 13.58Q40.05 14.21 39.47 14.52L39.47 14.52L39.47 14.52Q39.02 14.76 38.46 14.84L38.46 14.84L38.46 14.84Q37.90 14.92 37.41 14.92ZM37.02 9.42L37.02 9.42L37.02 9.42Q36.68 9.42 36.44 9.53L36.44 9.53L36.44 9.53Q36.19 9.65 36.04 9.82L36.04 9.82L36.04 9.82Q35.88 10.00 35.80 10.21L35.80 10.21L35.80 10.21Q35.73 10.43 35.71 10.65L35.71 10.65L38.11 10.26L38.11 10.26Q38.07 9.98 37.80 9.70L37.80 9.70L37.80 9.70Q37.53 9.42 37.02 9.42ZM45.81 13.69L45.81 10.39L45.81 10.39Q45.81 9.95 45.56 9.75L45.56 9.75L45.56 9.75Q45.32 9.55 44.90 9.55L44.90 9.55L44.90 9.55Q44.62 9.55 44.34 9.62L44.34 9.62L44.34 9.62Q44.07 9.69 43.88 9.83L43.88 9.83L43.88 14.69L43.88 14.69Q43.74 14.73 43.44 14.77L43.44 14.77L43.44 14.77Q43.13 14.81 42.81 14.81L42.81 14.81L42.81 14.81Q42.50 14.81 42.26 14.77L42.26 14.77L42.26 14.77Q42.01 14.73 41.85 14.60L41.85 14.60L41.85 14.60Q41.68 14.48 41.59 14.26L41.59 14.26L41.59 14.26Q41.50 14.04 41.50 13.69L41.50 13.69L41.50 9.49L41.50 9.49Q41.50 9.11 41.66 8.88L41.66 8.88L41.66 8.88Q41.82 8.64 42.10 8.44L42.10 8.44L42.10 8.44Q42.57 8.11 43.30 7.90L43.30 7.90L43.30 7.90Q44.02 7.69 44.90 7.69L44.90 7.69L44.90 7.69Q46.48 7.69 47.33 8.38L47.33 8.38L47.33 8.38Q48.19 9.07 48.19 10.30L48.19 10.30L48.19 14.69L48.19 14.69Q48.05 14.73 47.75 14.77L47.75 14.77L47.75 14.77Q47.45 14.81 47.12 14.81L47.12 14.81L47.12 14.81Q46.82 14.81 46.57 14.77L46.57 14.77L46.57 14.77Q46.33 14.73 46.16 14.60L46.16 14.60L46.16 14.60Q45.99 14.48 45.90 14.26L45.90 14.26L45.90 14.26Q45.81 14.04 45.81 13.69L45.81 13.69ZM54.53 14.70L49.90 14.70L49.90 14.70Q49.67 14.50 49.54 14.24L49.54 14.24L49.54 14.24Q49.41 13.97 49.41 13.64L49.41 13.64L49.41 13.64Q49.41 13.36 49.54 13.08L49.54 13.08L49.54 13.08Q49.67 12.81 49.87 12.57L49.87 12.57L52.28 9.74L49.70 9.74L49.70 9.74Q49.62 9.59 49.54 9.35L49.54 9.35L49.54 9.35Q49.46 9.11 49.46 8.83L49.46 8.83L49.46 8.83Q49.46 8.34 49.68 8.13L49.68 8.13L49.68 8.13Q49.90 7.91 50.26 7.91L50.26 7.91L54.67 7.91L54.67 7.91Q54.89 8.11 55.03 8.37L55.03 8.37L55.03 8.37Q55.16 8.64 55.16 8.97L55.16 8.97L55.16 8.97Q55.16 9.25 55.03 9.53L55.03 9.53L55.03 9.53Q54.89 9.80 54.70 10.04L54.70 10.04L52.35 12.87L55.09 12.87L55.09 12.87Q55.17 13.02 55.25 13.26L55.25 13.26L55.25 13.26Q55.33 13.50 55.33 13.78L55.33 13.78L55.33 13.78Q55.33 14.27 55.11 14.48L55.11 14.48L55.11 14.48Q54.89 14.70 54.53 14.70L54.53 14.70ZM56.34 6.01L56.34 6.01L56.34 6.01Q56.34 5.47 56.69 5.11L56.69 5.11L56.69 5.11Q57.05 4.75 57.64 4.75L57.64 4.75L57.64 4.75Q58.23 4.75 58.58 5.11L58.58 5.11L58.58 5.11Q58.94 5.47 58.94 6.01L58.94 6.01L58.94 6.01Q58.94 6.54 58.58 6.90L58.58 6.90L58.58 6.90Q58.23 7.27 57.64 7.27L57.64 7.27L57.64 7.27Q57.05 7.27 56.69 6.90L56.69 6.90L56.69 6.90Q56.34 6.54 56.34 6.01ZM58.83 8.99L58.83 14.69L58.83 14.69Q58.67 14.71 58.37 14.76L58.37 14.76L58.37 14.76Q58.07 14.81 57.76 14.81L57.76 14.81L57.76 14.81Q57.46 14.81 57.21 14.77L57.21 14.77L57.21 14.77Q56.97 14.73 56.80 14.60L56.80 14.60L56.80 14.60Q56.63 14.48 56.54 14.26L56.54 14.26L56.54 14.26Q56.45 14.04 56.45 13.69L56.45 13.69L56.45 7.99L56.45 7.99Q56.60 7.97 56.90 7.92L56.90 7.92L56.90 7.92Q57.20 7.87 57.51 7.87L57.51 7.87L57.51 7.87Q57.82 7.87 58.07 7.91L58.07 7.91L58.07 7.91Q58.31 7.95 58.48 8.08L58.48 8.08L58.48 8.08Q58.65 8.20 58.74 8.42L58.74 8.42L58.74 8.42Q58.83 8.64 58.83 8.99L58.83 8.99ZM63.94 14.92L63.94 14.92L63.94 14.92Q63.11 14.92 62.41 14.69L62.41 14.69L62.41 14.69Q61.70 14.46 61.17 14.00L61.17 14.00L61.17 14.00Q60.65 13.54 60.35 12.84L60.35 12.84L60.35 12.84Q60.05 12.14 60.05 11.20L60.05 11.20L60.05 11.20Q60.05 10.28 60.35 9.61L60.35 9.61L60.35 9.61Q60.65 8.95 61.14 8.52L61.14 8.52L61.14 8.52Q61.63 8.09 62.26 7.89L62.26 7.89L62.26 7.89Q62.89 7.69 63.55 7.69L63.55 7.69L63.55 7.69Q64.29 7.69 64.90 7.91L64.90 7.91L64.90 7.91Q65.51 8.13 65.95 8.53L65.95 8.53L65.95 8.53Q66.39 8.92 66.63 9.46L66.63 9.46L66.63 9.46Q66.88 10.01 66.88 10.65L66.88 10.65L66.88 10.65Q66.88 11.13 66.61 11.38L66.61 11.38L66.61 11.38Q66.35 11.63 65.87 11.70L65.87 11.70L62.41 12.22L62.41 12.22Q62.57 12.68 63.04 12.92L63.04 12.92L63.04 12.92Q63.52 13.15 64.13 13.15L64.13 13.15L64.13 13.15Q64.71 13.15 65.22 13.00L65.22 13.00L65.22 13.00Q65.73 12.85 66.05 12.66L66.05 12.66L66.05 12.66Q66.28 12.80 66.43 13.05L66.43 13.05L66.43 13.05Q66.58 13.30 66.58 13.58L66.58 13.58L66.58 13.58Q66.58 14.21 66.00 14.52L66.00 14.52L66.00 14.52Q65.55 14.76 64.99 14.84L64.99 14.84L64.99 14.84Q64.43 14.92 63.94 14.92ZM63.55 9.42L63.55 9.42L63.55 9.42Q63.21 9.42 62.97 9.53L62.97 9.53L62.97 9.53Q62.72 9.65 62.57 9.82L62.57 9.82L62.57 9.82Q62.41 10.00 62.34 10.21L62.34 10.21L62.34 10.21Q62.26 10.43 62.24 10.65L62.24 10.65L64.64 10.26L64.64 10.26Q64.60 9.98 64.33 9.70L64.33 9.70L64.33 9.70Q64.06 9.42 63.55 9.42ZM70.64 8.01L70.64 12.88L70.64 12.88Q70.80 12.91 71.02 12.93L71.02 12.93L71.02 12.93Q71.25 12.95 71.44 12.95L71.44 12.95L71.44 12.95Q71.92 12.95 72.32 12.81L72.32 12.81L72.32 12.81Q72.72 12.67 73.00 12.38L73.00 12.38L73.00 12.38Q73.29 12.08 73.45 11.61L73.45 11.61L73.45 11.61Q73.61 11.14 73.61 10.49L73.61 10.49L73.61 10.49Q73.61 9.23 73.02 8.59L73.02 8.59L73.02 8.59Q72.44 7.95 71.46 7.95L71.46 7.95L71.46 7.95Q71.26 7.95 71.06 7.97L71.06 7.97L71.06 7.97Q70.85 7.98 70.64 8.01L70.64 8.01ZM71.43 14.92L71.43 14.92L71.43 14.92Q71.19 14.92 70.88 14.91L70.88 14.91L70.88 14.91Q70.57 14.90 70.25 14.85L70.25 14.85L70.25 14.85Q69.92 14.81 69.59 14.75L69.59 14.75L69.59 14.75Q69.26 14.69 68.98 14.57L68.98 14.57L68.98 14.57Q68.21 14.28 68.21 13.55L68.21 13.55L68.21 7.01L68.21 7.01Q68.21 6.72 68.37 6.56L68.37 6.56L68.37 6.56Q68.53 6.40 68.81 6.30L68.81 6.30L68.81 6.30Q69.41 6.10 70.08 6.04L70.08 6.04L70.08 6.04Q70.76 5.98 71.29 5.98L71.29 5.98L71.29 5.98Q72.38 5.98 73.27 6.24L73.27 6.24L73.27 6.24Q74.16 6.51 74.80 7.06L74.80 7.06L74.80 7.06Q75.43 7.62 75.78 8.46L75.78 8.46L75.78 8.46Q76.13 9.30 76.13 10.44L76.13 10.44L76.13 10.44Q76.13 11.56 75.80 12.40L75.80 12.40L75.80 12.40Q75.46 13.23 74.84 13.80L74.84 13.80L74.84 13.80Q74.21 14.36 73.35 14.64L73.35 14.64L73.35 14.64Q72.48 14.92 71.43 14.92ZM80.95 14.92L80.95 14.92L80.95 14.92Q80.12 14.92 79.42 14.69L79.42 14.69L79.42 14.69Q78.71 14.46 78.18 14.00L78.18 14.00L78.18 14.00Q77.66 13.54 77.36 12.84L77.36 12.84L77.36 12.84Q77.06 12.14 77.06 11.20L77.06 11.20L77.06 11.20Q77.06 10.28 77.36 9.61L77.36 9.61L77.36 9.61Q77.66 8.95 78.15 8.52L78.15 8.52L78.15 8.52Q78.64 8.09 79.27 7.89L79.27 7.89L79.27 7.89Q79.90 7.69 80.56 7.69L80.56 7.69L80.56 7.69Q81.30 7.69 81.91 7.91L81.91 7.91L81.91 7.91Q82.52 8.13 82.96 8.53L82.96 8.53L82.96 8.53Q83.40 8.92 83.64 9.46L83.64 9.46L83.64 9.46Q83.89 10.01 83.89 10.65L83.89 10.65L83.89 10.65Q83.89 11.13 83.62 11.38L83.62 11.38L83.62 11.38Q83.36 11.63 82.88 11.70L82.88 11.70L79.42 12.22L79.42 12.22Q79.58 12.68 80.05 12.92L80.05 12.92L80.05 12.92Q80.53 13.15 81.14 13.15L81.14 13.15L81.14 13.15Q81.72 13.15 82.23 13.00L82.23 13.00L82.23 13.00Q82.74 12.85 83.06 12.66L83.06 12.66L83.06 12.66Q83.29 12.80 83.44 13.05L83.44 13.05L83.44 13.05Q83.59 13.30 83.59 13.58L83.59 13.58L83.59 13.58Q83.59 14.21 83.01 14.52L83.01 14.52L83.01 14.52Q82.56 14.76 82.00 14.84L82.00 14.84L82.00 14.84Q81.44 14.92 80.95 14.92ZM80.56 9.42L80.56 9.42L80.56 9.42Q80.22 9.42 79.97 9.53L79.97 9.53L79.97 9.53Q79.73 9.65 79.58 9.82L79.58 9.82L79.58 9.82Q79.42 10.00 79.34 10.21L79.34 10.21L79.34 10.21Q79.27 10.43 79.25 10.65L79.25 10.65L81.65 10.26L81.65 10.26Q81.61 9.98 81.34 9.70L81.34 9.70L81.34 9.70Q81.07 9.42 80.56 9.42ZM89.53 14.52L89.53 14.52L89.53 14.52Q89.33 14.67 88.96 14.77L88.96 14.77L88.96 14.77Q88.58 14.87 88.10 14.87L88.10 14.87L88.10 14.87Q87.56 14.87 87.16 14.73L87.16 14.73L87.16 14.73Q86.76 14.59 86.60 14.28L86.60 14.28L86.60 14.28Q86.48 14.04 86.30 13.62L86.30 13.62L86.30 13.62Q86.13 13.19 85.93 12.66L85.93 12.66L85.93 12.66Q85.74 12.14 85.53 11.54L85.53 11.54L85.53 11.54Q85.32 10.93 85.13 10.35L85.13 10.35L85.13 10.35Q84.94 9.76 84.78 9.21L84.78 9.21L84.78 9.21Q84.63 8.67 84.53 8.25L84.53 8.25L84.53 8.25Q84.73 8.05 85.06 7.90L85.06 7.90L85.06 7.90Q85.39 7.76 85.78 7.76L85.78 7.76L85.78 7.76Q86.27 7.76 86.58 7.96L86.58 7.96L86.58 7.96Q86.90 8.16 87.05 8.72L87.05 8.72L87.60 10.86L87.60 10.86Q87.75 11.49 87.89 12.01L87.89 12.01L87.89 12.01Q88.03 12.52 88.10 12.80L88.10 12.80L88.17 12.80L88.17 12.80Q88.44 11.76 88.73 10.50L88.73 10.50L88.73 10.50Q89.03 9.24 89.26 8.02L89.26 8.02L89.26 8.02Q89.50 7.90 89.80 7.83L89.80 7.83L89.80 7.83Q90.10 7.76 90.38 7.76L90.38 7.76L90.38 7.76Q90.87 7.76 91.21 7.97L91.21 7.97L91.21 7.97Q91.55 8.18 91.55 8.69L91.55 8.69L91.55 8.69Q91.55 8.92 91.44 9.35L91.44 9.35L91.44 9.35Q91.34 9.77 91.17 10.31L91.17 10.31L91.17 10.31Q91.01 10.85 90.80 11.45L90.80 11.45L90.80 11.45Q90.58 12.05 90.36 12.63L90.36 12.63L90.36 12.63Q90.13 13.20 89.91 13.70L89.91 13.70L89.91 13.70Q89.70 14.20 89.53 14.52Z"></path></g><!----><!----></svg>